<svg width="1180" height="628" viewBox="0 0 1180 628" fill="none" xmlns="http://www.w3.org/2000/svg">
<rect x="105.677" y="209" width="1059" height="404" rx="74" fill="white" stroke="#80522A" stroke-width="10"/>
<path d="M27.1769 148C42.3769 169.6 77.1769 202 92.6769 215.5C107.077 191.1 134.344 178.667 146.177 175.5C142.844 159.333 132.077 120.5 115.677 94.5C95.1769 62 53.6768 43.5972 27.1769 62C0.676884 80.4028 8.17686 121 27.1769 148Z" fill="white" stroke="#80522A" stroke-width="10"/>
<path d="M163.677 97.5C165.113 111.278 169.694 144.122 175.677 169H250.677L258.677 97.5C263.064 77.3197 260.561 11.2525 213.177 9.99993C153.947 8.43423 161.882 80.2772 163.677 97.5Z" fill="white" stroke="#80522A" stroke-width="10"/>
<path d="M188.85 95.7604L195.022 152.838C203.898 153.146 227.677 152.838 227.677 152.838L235.677 95.7604C237.773 84.0938 233.744 58 212.177 58C190.496 58 187.177 82.4999 188.85 95.7604Z" fill="#FFDEE0" stroke="#80522A" stroke-width="10"/>
<path d="M57.2101 141.687L93.6499 186.049C100.677 179.5 112.677 171.5 120.966 168.155L96.3799 116.026C91.7398 105.119 74.071 85.4993 56.0302 97.3179C37.8941 109.199 48.5437 131.511 57.2101 141.687Z" fill="#FFDEE0" stroke="#80522A" stroke-width="10"/>
</svg>
